<?xml version="1.0" standalone="no"?>
<!DOCTYPE svg PUBLIC "-//W3C//DTD SVG 20010904//EN"
 "http://www.w3.org/TR/2001/REC-SVG-20010904/DTD/svg10.dtd">
<svg version="1.0" xmlns="http://www.w3.org/2000/svg"
 width="800.000000pt" height="800.000000pt" viewBox="0 0 800.000000 800.000000"
 preserveAspectRatio="xMidYMid meet">

<g transform="translate(0.000000,800.000000) scale(0.100000,-0.100000)"
fill="#000000" stroke="none">
<path d="M3845 7633 c-750 -36 -1439 -283 -2030 -728 -463 -349 -824 -785
-1080 -1306 -611 -1242 -458 -2735 393 -3827 505 -649 1212 -1108 2002 -1302
291 -71 540 -100 863 -100 593 0 1085 113 1612 370 1031 503 1783 1504 1975
2629 68 402 69 860 0 1261 -175 1023 -806 1944 -1703 2484 -610 367 -1335 553
-2032 519z m380 -133 c836 -57 1610 -400 2209 -980 517 -501 864 -1133 1005
-1835 88 -437 88 -936 0 -1370 -219 -1078 -922 -1986 -1914 -2470 -1111 -542
-2444 -449 -3473 243 -875 588 -1419 1492 -1543 2562 -19 160 -16 566 5 740
80 672 334 1279 752 1805 113 141 398 426 539 539 692 551 1554 824 2420 766z"/>
<path d="M3395 6876 c-446 -95 -880 -303 -1235 -589 -99 -80 -349 -331 -431
-432 -227 -281 -436 -681 -529 -1011 -83 -296 -113 -517 -113 -829 0 -314 33
-549 118 -830 240 -793 793 -1439 1538 -1795 403 -192 801 -282 1257 -282 300
0 562 38 826 118 1083 327 1884 1240 2054 2339 70 456 36 911 -102 1343 -104
329 -279 655 -499 934 -97 122 -329 356 -449 452 -114 91 -346 245 -446 295
-102 51 -198 70 -287 54 -143 -24 -269 -119 -334 -251 -37 -74 -38 -79 -38
-187 0 -109 1 -113 36 -181 208 -395 281 -577 331 -822 20 -101 21 -118 10
-204 -24 -191 -96 -382 -207 -549 -73 -110 -204 -249 -302 -321 l-63 -46 -75
40 c-41 23 -89 53 -106 68 l-32 26 44 45 c93 93 148 261 156 482 l6 139 39 58
c112 168 146 379 92 575 -13 50 -31 122 -38 162 -31 162 -129 304 -301 442
-354 283 -745 307 -1109 68 -53 -35 -104 -60 -149 -72 -90 -23 -175 -79 -214
-141 -88 -136 -84 -366 9 -509 17 -27 32 -63 33 -80 1 -16 5 -42 9 -57 7 -25
5 -27 -25 -30 l-32 -3 41 -20 40 -21 -49 -69 c-125 -178 -133 -211 -67 -275
31 -31 38 -44 30 -52 -18 -18 -14 -70 6 -98 9 -14 17 -44 17 -67 0 -34 7 -49
33 -76 29 -30 32 -38 30 -88 -3 -74 25 -119 95 -153 42 -21 81 -28 202 -40
147 -14 150 -14 177 -45 15 -17 28 -35 28 -39 0 -4 -20 -40 -43 -79 -32 -54
-58 -83 -101 -113 l-57 -40 -47 27 c-216 127 -421 348 -527 568 -90 187 -128
350 -129 550 0 318 99 590 307 840 156 187 401 345 637 410 149 41 181 55 225
100 112 111 97 277 -31 347 -71 39 -129 42 -259 14z m198 -79 c92 -46 113
-129 46 -193 -35 -33 -73 -36 -199 -16 -124 21 -317 -9 -515 -78 -183 -64
-421 -195 -521 -286 l-39 -35 58 35 c181 112 486 235 727 292 78 19 144 27
256 31 173 6 205 -5 91 -32 -528 -128 -929 -545 -1044 -1085 -22 -106 -25
-371 -4 -475 20 -104 83 -290 129 -381 74 -147 159 -262 291 -395 72 -71 161
-149 207 -180 l81 -54 -33 -70 c-17 -38 -44 -109 -59 -156 -26 -83 -29 -89
-88 -136 -34 -27 -80 -55 -102 -62 -22 -7 -46 -15 -54 -18 -31 -13 20 210 79
341 16 36 28 66 25 66 -7 0 -83 -146 -115 -220 -17 -41 -41 -112 -53 -157 -22
-80 -23 -82 -85 -127 -34 -25 -64 -46 -66 -46 -6 0 5 102 25 230 23 145 56
287 99 419 17 52 29 95 27 98 -7 7 -85 -172 -117 -268 -45 -139 -70 -268 -77
-399 -5 -101 -8 -118 -28 -140 -61 -67 -90 -138 -104 -254 l-8 -61 -27 60
c-38 82 -56 172 -56 285 0 112 22 315 50 455 18 90 137 551 156 600 4 11 4 18
1 15 -11 -10 -94 -234 -142 -385 -27 -82 -59 -172 -73 -200 -54 -109 -284
-305 -357 -305 -21 0 -96 157 -129 271 -38 134 -49 234 -43 398 4 115 11 166
32 241 76 275 235 568 414 765 l46 50 -45 -36 c-112 -90 -272 -304 -366 -491
-54 -107 -214 -324 -222 -300 -6 20 27 223 57 347 31 127 94 312 129 381 22
43 176 206 297 314 92 81 43 57 -98 -49 -122 -92 -123 -89 -14 74 100 149 141
198 234 275 104 87 126 107 103 95 -8 -5 -28 -17 -43 -28 -16 -10 -30 -17 -33
-14 -10 10 284 241 500 392 47 32 83 61 81 63 -6 6 -168 -83 -275 -151 -52
-34 -122 -75 -155 -91 -58 -30 -63 -31 -200 -31 -77 0 -148 3 -158 7 -17 7
-16 11 9 55 109 188 213 302 379 411 221 147 489 264 770 338 164 43 260 44
348 1z m1688 -203 c103 -30 246 -120 347 -218 195 -190 302 -373 302 -518 l0
-49 -47 6 c-288 39 -524 166 -668 356 -25 34 -45 57 -45 52 1 -18 60 -125 139
-248 93 -145 220 -398 276 -550 47 -127 99 -329 121 -470 21 -136 23 -421 5
-555 -46 -332 -187 -678 -394 -965 -137 -191 -339 -407 -542 -580 -198 -168
-284 -273 -342 -415 -27 -66 -31 -70 -148 -158 -314 -236 -559 -339 -905 -381
-69 -9 -306 -24 -510 -32 -75 -4 78 -18 265 -25 268 -10 452 13 660 81 158 51
377 174 518 289 32 26 60 46 61 44 2 -2 0 -34 -5 -73 -4 -38 -8 -102 -8 -141
l-1 -71 -147 -70 c-334 -161 -626 -237 -963 -250 -340 -13 -640 52 -955 207
-195 96 -434 258 -502 341 l-22 26 97 -29 c261 -78 475 -110 747 -111 359 -1
656 56 985 189 988 401 1620 1335 1620 2394 0 466 -104 861 -339 1289 -87 158
-94 183 -89 285 3 68 10 91 38 144 93 175 274 258 451 206z m-1375 -319 c42
-8 78 -16 80 -18 1 -1 -54 -3 -124 -3 -141 -1 -264 -21 -375 -61 -87 -30 -191
-84 -232 -118 -23 -20 -16 -17 30 9 206 119 550 158 810 92 213 -55 325 -138
409 -306 54 -107 60 -143 14 -74 -45 66 -106 110 -191 136 -61 20 -93 23 -212
22 -143 -1 -196 -8 -485 -66 -104 -20 -198 -32 -286 -35 -117 -5 -135 -3 -177
15 -31 14 -54 33 -68 56 -12 20 -23 36 -25 36 -19 0 -68 -37 -103 -76 -57 -65
-79 -132 -87 -265 l-7 -112 -20 39 c-117 228 1 505 225 531 38 4 69 17 110 45
113 76 235 128 358 153 89 18 262 18 356 0z m2107 -218 c182 -179 298 -334
428 -567 573 -1028 409 -2132 -474 -3190 l-79 -95 97 100 c291 298 535 671
679 1038 112 284 181 630 187 932 l2 70 9 -90 c12 -117 3 -449 -17 -591 -80
-586 -319 -1107 -713 -1557 -93 -106 -234 -239 -332 -313 -133 -101 -325 -180
-508 -210 -106 -17 -306 -14 -374 6 -32 9 -38 15 -38 39 0 43 44 186 83 272
l35 75 83 29 c666 225 1174 928 1309 1811 28 177 38 560 21 754 -28 316 -100
617 -210 880 -38 89 -121 247 -162 307 -21 30 -29 53 -29 85 0 85 -53 218
-125 312 -58 76 -9 39 128 -97z m-3949 28 c-31 -57 -53 -109 -50 -114 13 -20
153 -46 251 -46 l100 0 -89 -85 c-369 -354 -606 -812 -703 -1360 -28 -162 -26
-588 4 -760 75 -423 241 -794 500 -1115 91 -113 283 -304 387 -385 38 -30 63
-56 57 -58 -15 -5 -207 14 -306 30 l-70 12 -104 100 c-532 518 -792 1276 -742
2164 6 111 18 257 27 324 8 66 13 123 10 125 -5 5 -42 -192 -62 -332 -21 -149
-30 -581 -15 -727 64 -622 289 -1146 659 -1530 l85 -88 -54 16 c-163 46 -244
78 -268 105 -49 53 -181 276 -255 430 -207 429 -297 854 -283 1329 20 653 246
1247 666 1755 62 74 297 315 307 315 2 0 -22 -47 -52 -105z m1021 -198 c45
-72 142 -97 375 -97 173 0 249 -15 364 -68 115 -54 198 -112 283 -198 57 -57
81 -92 116 -166 60 -124 72 -180 71 -318 -1 -95 -6 -129 -27 -195 -50 -152
-161 -276 -291 -325 l-29 -11 27 33 c90 110 134 319 106 496 -14 83 -44 160
-86 223 l-34 51 37 -7 c72 -13 148 -49 186 -85 43 -44 46 -42 13 6 -56 83
-145 115 -413 149 -109 14 -239 34 -289 45 -164 37 -284 112 -360 224 -43 64
-44 52 -2 -26 78 -147 260 -248 491 -273 38 -4 72 -13 79 -22 6 -8 14 -52 16
-97 7 -129 -37 -252 -117 -330 l-36 -35 -1 97 c-1 74 -6 110 -22 152 -53 135
-105 182 -270 246 -126 48 -164 67 -207 106 -55 48 -75 95 -76 180 0 60 -2 68
-10 48 -6 -14 -9 -57 -7 -96 3 -57 9 -79 31 -113 36 -54 120 -108 251 -161
142 -57 185 -86 218 -146 74 -137 76 -284 4 -378 -14 -19 -26 -37 -26 -41 0
-3 28 9 62 27 113 60 191 158 224 283 16 59 18 186 4 234 l-9 34 77 -7 c73 -6
79 -8 111 -44 46 -51 97 -160 117 -250 13 -57 15 -100 11 -176 -11 -174 -37
-238 -133 -333 -62 -61 -63 -62 -31 -57 104 19 166 45 233 100 l41 33 -10 -55
c-18 -108 37 -260 131 -357 34 -35 96 -79 234 -165 108 -67 169 -196 188 -398
12 -135 -2 -330 -30 -383 -48 -96 -205 -271 -363 -407 -119 -103 -283 -224
-301 -224 -19 0 -61 380 -69 620 l-2 75 -24 -95 c-16 -68 -23 -127 -24 -207
-1 -62 -6 -113 -11 -113 -21 0 -267 136 -340 188 -44 31 -139 113 -211 183
-136 130 -202 176 -295 204 -30 9 -63 20 -74 24 -18 7 10 28 277 215 97 68
128 98 172 167 24 36 61 80 84 98 52 41 71 77 71 134 0 89 -100 239 -182 272
-30 12 -82 19 -173 22 -140 5 -180 13 -219 44 -24 19 -26 27 -26 91 0 64 -3
73 -30 105 -33 37 -35 45 -19 74 8 16 5 26 -15 50 -30 35 -32 54 -11 75 26 26
17 49 -35 93 -33 28 -50 50 -50 65 0 12 34 71 75 131 41 60 75 120 75 133 0
12 -9 40 -20 62 -21 41 -24 67 -14 119 l7 32 19 -33 c28 -46 87 -107 123 -125
25 -13 22 -7 -23 41 -116 122 -148 279 -90 435 21 54 80 131 102 131 6 -1 20
-15 31 -33z m1237 -7 c122 -37 222 -132 249 -235 44 -164 49 -196 49 -305 1
-166 -31 -279 -111 -397 -26 -37 -29 -50 -29 -120 0 -153 -45 -344 -106 -448
-13 -22 -41 -57 -62 -78 l-39 -38 -17 26 c-53 81 -83 266 -54 335 9 20 41 64
73 99 55 58 56 61 22 41 l-37 -22 21 48 c58 137 70 334 27 479 -47 158 -154
302 -299 401 -65 45 -68 49 -47 57 13 5 97 12 188 14 189 6 268 -7 360 -59
l55 -30 -39 40 c-21 22 -66 53 -100 68 -54 26 -75 29 -188 32 -81 3 -174 -2
-256 -12 -125 -16 -129 -16 -173 3 -25 11 -79 26 -120 33 -41 6 -77 14 -81 18
-8 6 257 52 397 70 102 13 239 4 317 -20z m1272 -58 l90 -39 58 -114 c188
-372 304 -903 283 -1299 -30 -581 -248 -1105 -674 -1625 -90 -110 -50 -75 73
65 285 324 457 621 570 985 114 365 130 809 45 1230 -42 207 -124 445 -218
634 -49 97 -51 103 -29 98 13 -3 47 -9 77 -13 l53 -7 56 -86 c116 -180 228
-462 286 -721 128 -576 86 -1192 -119 -1715 -185 -475 -515 -869 -880 -1052
-203 -103 -386 -145 -627 -147 -91 -1 -169 2 -173 6 -11 11 -8 236 4 298 13
63 65 178 112 246 49 72 153 178 279 284 374 316 682 731 823 1110 44 119 91
294 114 425 23 139 23 471 -1 610 -48 282 -163 613 -289 829 -15 27 -22 46
-15 43 7 -3 53 -23 102 -45z m-447 -1224 c-6 -150 -18 -265 -43 -410 l-6 -37
-37 24 c-52 36 -57 31 -17 -19 20 -23 36 -52 36 -63 0 -27 -53 -208 -92 -311
l-31 -83 -26 24 c-14 13 -48 37 -76 53 l-50 28 51 -57 c82 -92 82 -92 39 -178
-33 -65 -133 -239 -138 -239 -1 0 -1 71 1 158 2 130 -1 175 -18 252 -21 99
-64 202 -107 258 -14 18 -23 34 -22 36 214 146 410 402 505 659 16 42 30 77
33 77 2 0 1 -78 -2 -172z m-3398 -258 c-6 -25 -14 -88 -20 -140 -5 -52 -20
-140 -32 -194 -30 -125 -35 -110 -44 119 l-6 171 29 18 c16 10 40 32 53 48 13
16 25 28 27 26 1 -2 -2 -24 -7 -48z m1737 -165 c25 -61 19 -100 -22 -137 -20
-18 -61 -68 -91 -111 -31 -43 -57 -76 -60 -73 -6 6 20 108 47 178 19 52 95
178 106 178 3 0 12 -16 20 -35z m-192 -202 c-8 -26 -19 -76 -25 -112 -5 -36
-17 -73 -25 -82 -21 -23 -135 -101 -140 -96 -7 7 34 105 73 177 36 66 108 160
123 160 4 0 2 -21 -6 -47z m-1534 -157 c27 -100 73 -215 116 -290 l35 -59 -7
-151 -7 -151 -44 93 c-71 152 -137 357 -136 427 0 72 13 218 19 212 2 -2 13
-38 24 -81z m524 -266 c-10 -70 -14 -155 -11 -255 3 -128 7 -159 27 -210 21
-53 24 -83 30 -260 4 -110 10 -218 14 -240 l7 -40 -83 85 c-80 81 -197 230
-248 315 -23 38 -25 50 -28 237 -5 232 -1 264 32 272 14 3 54 26 90 50 36 24
66 41 66 36 0 -4 -8 -43 -17 -86 -14 -61 -18 -125 -18 -274 0 -170 3 -207 23
-285 13 -49 36 -117 53 -150 16 -33 26 -49 23 -37 -68 272 -69 556 -5 832 15
67 46 129 57 117 1 -1 -4 -50 -12 -107z m698 -110 c84 -32 212 -125 295 -216
132 -145 263 -241 478 -350 l140 -71 15 -121 16 -120 -110 -65 c-256 -150
-556 -253 -851 -291 -126 -16 -102 -24 -272 87 -68 44 -95 68 -103 91 -7 17
-15 85 -20 151 -5 76 -15 141 -28 176 -57 160 -72 338 -38 439 22 65 104 150
234 243 114 82 138 86 244 47z m-521 -709 c17 -68 28 -145 32 -214 l5 -108
-22 14 c-13 9 -25 34 -33 68 -18 79 -52 285 -59 354 l-6 60 28 -34 c19 -24 36
-66 55 -140z m2469 -787 c0 -3 -18 -32 -40 -64 -35 -51 -54 -67 -141 -116
-326 -185 -826 -307 -1294 -315 l-70 -1 50 -10 c71 -13 393 -13 500 1 152 20
334 60 460 102 116 39 314 129 404 185 24 15 40 21 36 14 -4 -7 -15 -43 -24
-79 l-16 -66 -75 -37 c-111 -55 -310 -132 -440 -171 -234 -71 -431 -101 -660
-101 -407 1 -781 110 -1173 342 -77 46 -226 154 -303 220 l-39 34 55 -32 c334
-193 688 -280 1095 -267 368 11 729 108 1054 283 l84 46 151 4 c83 3 194 11
246 18 111 16 140 18 140 10z m480 -408 c0 -7 -84 -52 -200 -106 -500 -232
-1050 -313 -1605 -237 l-90 12 170 6 c339 12 651 92 1019 259 131 60 134 61
182 50 27 -7 87 -15 134 -19 l85 -7 -50 -23 c-80 -37 -223 -87 -388 -136 -129
-39 -143 -45 -92 -40 180 18 394 81 554 162 58 29 118 53 135 54 25 1 133 22
144 28 1 0 2 -1 2 -3z"/>
<path d="M2312 4702 c-157 -239 -254 -532 -251 -761 1 -81 2 -83 11 -41 43
203 65 290 95 385 38 119 115 309 170 419 19 37 33 70 31 72 -3 2 -27 -31 -56
-74z"/>
<path d="M5279 6415 c116 -72 234 -169 390 -320 104 -102 139 -130 126 -105
-88 173 -294 358 -487 438 -106 44 -115 40 -29 -13z"/>
</g>
</svg>
