<?xml version="1.0" standalone="no"?>
<!DOCTYPE svg PUBLIC "-//W3C//DTD SVG 20010904//EN"
 "http://www.w3.org/TR/2001/REC-SVG-20010904/DTD/svg10.dtd">
<svg version="1.0" xmlns="http://www.w3.org/2000/svg"
 width="1225.000000pt" height="980.000000pt" viewBox="0 0 1225.000000 980.000000"
 preserveAspectRatio="xMidYMid meet">

<g transform="translate(0.000000,980.000000) scale(0.100000,-0.100000)"
fill="#000000" stroke="none">
<path d="M4630 8914 c-639 -515 -973 -1253 -929 -2056 45 -838 516 -1581 1264
-1997 l104 -58 -120 -209 c-67 -115 -146 -253 -177 -306 -31 -54 -59 -98 -63
-98 -3 0 -105 171 -225 380 -121 209 -223 378 -228 377 -5 -2 -41 -59 -81
-127 -39 -69 -285 -494 -545 -945 -260 -451 -524 -908 -586 -1015 -62 -107
-110 -198 -107 -203 7 -11 2643 -8 2643 4 0 9 -25 54 -246 436 -52 89 -97 169
-100 177 -6 14 39 16 430 16 l436 0 0 -875 0 -874 -22 -12 c-41 -21 -68 -52
-79 -91 -13 -51 15 -119 60 -142 64 -34 147 -12 177 46 36 69 15 141 -52 180
l-34 20 0 874 0 874 435 0 c239 0 435 -2 435 -5 0 -7 -32 -64 -213 -377 -75
-130 -137 -241 -137 -247 0 -13 2636 -16 2643 -4 3 5 -27 64 -67 133 -40 69
-196 339 -347 600 -150 261 -414 718 -585 1015 -171 296 -315 540 -320 542 -5
2 -50 -68 -100 -154 -50 -87 -148 -258 -219 -380 -70 -123 -131 -223 -135
-223 -5 0 -344 578 -357 609 -2 3 38 28 87 54 355 190 653 463 882 807 187
280 309 590 369 935 27 152 37 512 19 666 -62 541 -297 1041 -668 1423 -113
115 -352 321 -352 302 0 -4 22 -34 49 -69 193 -246 319 -528 378 -842 21 -113
28 -401 14 -522 -94 -757 -623 -1373 -1351 -1572 -41 -12 -80 -21 -86 -21 -7
0 -94 141 -193 314 l-181 314 0 525 0 525 24 6 c66 16 123 108 111 176 -15 79
-84 140 -160 140 -109 0 -191 -118 -150 -216 21 -51 61 -91 96 -99 l29 -7 0
-525 0 -526 -181 -313 c-100 -173 -186 -314 -193 -314 -25 0 -197 50 -269 79
-435 173 -793 503 -992 916 -127 264 -185 515 -185 805 0 420 124 787 384
1135 56 75 69 95 64 95 -2 0 -46 -34 -98 -76z m-198 -305 c-100 -196 -168
-434 -192 -668 -14 -141 -13 -243 5 -395 59 -502 307 -948 705 -1266 214 -170
400 -261 747 -365 7 -3 -38 -91 -114 -222 -197 -342 -472 -817 -482 -832 -8
-12 -22 -8 -83 24 -461 241 -860 665 -1068 1135 -397 894 -218 1922 459 2633
41 42 76 76 77 74 2 -2 -22 -55 -54 -118z m3602 -186 c516 -687 619 -1613 267
-2400 -209 -467 -577 -866 -1028 -1116 -46 -25 -91 -48 -102 -52 -15 -4 -35
24 -118 167 -54 95 -191 332 -303 527 -113 195 -204 357 -203 360 1 3 16 10
35 15 525 137 964 482 1217 957 282 529 291 1174 24 1717 -32 64 -59 122 -61
127 -8 27 192 -195 272 -302z m-1936 -2375 l-3 -131 -75 2 c-70 2 -200 18
-208 25 -2 2 61 115 140 252 l143 248 3 -132 c1 -73 1 -191 0 -264z m154 227
c41 -71 101 -174 132 -229 31 -54 55 -100 53 -102 -6 -7 -142 -23 -212 -25
l-70 -3 -3 265 c-2 225 0 261 11 244 8 -11 48 -78 89 -150z m-332 -395 c46 -5
106 -10 132 -10 l48 0 0 -631 0 -630 -87 6 c-291 20 -510 67 -761 163 -68 25
-91 39 -88 49 5 13 480 838 579 1006 36 61 42 67 66 63 14 -3 64 -10 111 -16z
m607 -82 c350 -604 553 -958 558 -969 4 -11 -20 -24 -87 -51 -237 -93 -477
-144 -755 -163 l-93 -6 0 631 0 630 58 1 c31 0 98 6 147 13 50 7 95 14 101 15
7 0 39 -45 71 -101z m-2161 -1116 c56 -97 150 -260 208 -360 58 -101 106 -186
106 -189 0 -3 -106 -188 -235 -412 -129 -224 -235 -413 -235 -419 0 -9 125
-12 481 -14 l481 -3 168 -290 167 -290 -1245 -3 c-685 -1 -1247 0 -1249 2 -2
2 71 134 163 292 92 159 228 395 302 524 74 129 165 287 202 350 37 63 180
312 319 553 139 240 256 437 259 437 4 0 53 -80 108 -178z m3755 -34 c68 -117
171 -296 229 -398 59 -102 133 -230 165 -285 32 -55 99 -172 150 -260 51 -88
201 -348 334 -578 132 -230 241 -420 241 -422 0 -3 -560 -5 -1245 -5 -791 0
-1245 4 -1245 10 0 8 146 265 291 513 l40 67 479 0 c354 0 480 3 480 11 0 7
-96 179 -214 383 -117 204 -224 389 -236 411 l-23 40 168 290 c92 160 186 323
208 362 23 40 45 73 49 73 3 0 62 -96 129 -212z m-2913 98 c225 -94 520 -160
770 -173 l122 -6 0 -604 0 -603 -459 0 -459 0 -217 375 -217 375 24 43 c52 92
331 573 344 595 18 27 22 27 92 -2z m2104 -308 l189 -326 -132 -229 c-72 -125
-169 -294 -216 -375 l-85 -148 -459 0 -459 0 0 605 0 605 68 0 c100 0 310 27
440 56 121 27 316 88 392 123 25 12 51 20 59 18 8 -1 99 -149 203 -329z
m-2384 -728 c99 -174 184 -323 188 -333 6 -16 -20 -17 -395 -17 -221 0 -401 2
-401 5 0 4 354 621 387 673 18 30 -4 63 221 -328z m2701 180 c43 -74 128 -222
189 -328 62 -106 112 -195 112 -197 0 -3 -180 -5 -400 -5 -220 0 -400 4 -400
9 0 4 60 111 133 237 72 126 161 280 197 342 59 102 66 112 78 95 7 -10 48
-79 91 -153z"/>
<path d="M6075 1166 c-127 -56 -93 -246 44 -246 61 0 99 24 122 76 16 36 18
50 10 82 -12 43 -42 75 -84 91 -36 14 -55 13 -92 -3z"/>
<path d="M6086 810 c-121 -37 -119 -216 3 -250 99 -27 188 63 160 163 -17 64
-97 107 -163 87z"/>
</g>
</svg>
